PathFileType	3	(X/Y/Z)	D:\Vicon Database\Healthy Subjects\S0040\Jan. 30, 2020\Force Plate Walk 9.trc
DataRate	CameraRate	NumFrames	NumMarkers	Units	OrigDataRate	OrigDataStartFrame	OrigNumFrames
100.0	100.0	4	53	mm	100.0	480	299	
Frame#	Time	right_foot_cluster2			right_foot_cluster3			sternum_cluster1			sternum_cluster2			sternum_cluster3			left_asis			right_asis			left_psis			right_psis			sacrum_cluster1			sacrum_cluster2			sacrum_cluster3			left_lat_femoral_epicondyle			left_anterior_thigh15			left_anterior_thigh25			left_anterior_thigh50			left_lateral_thigh25			left_lateral_thigh50			left_thigh_cluster1			left_thigh_cluster2			left_thigh_cluster3			left_fibular_head			left_tibial_tuberosity			left_anterior_shank30			left_lateral_malleolus			left_shank_cluster1			left_shank_cluster2			left_shank_cluster3			left_heel			left_metatarsal2			left_foot_cluster1			left_foot_cluster2			left_foot_cluster3			right_lat_femoral_epicondyle			right_anterior_thigh15			right_anterior_thigh25			right_anterior_thigh50			right_lateral_thigh25			right_lateral_thigh50			right_thigh_cluster1			right_thigh_cluster2			right_thigh_cluster3			right_fibular_head			right_tibial_tuberosity			right_lateral_distal_shank			right_anterior_shank30			right_lateral_malleolus			right_shank_cluster1			right_shank_cluster2			right_shank_cluster3			right_heel			right_metatarsal2			right_foot_cluster1			
		X1	Y1	Z1	X2	Y2	Z2	X3	Y3	Z3	X4	Y4	Z4	X5	Y5	Z5	X6	Y6	Z6	X7	Y7	Z7	X8	Y8	Z8	X9	Y9	Z9	X10	Y10	Z10	X11	Y11	Z11	X12	Y12	Z12	X13	Y13	Z13	X14	Y14	Z14	X15	Y15	Z15	X16	Y16	Z16	X17	Y17	Z17	X18	Y18	Z18	X19	Y19	Z19	X20	Y20	Z20	X21	Y21	Z21	X22	Y22	Z22	X23	Y23	Z23	X24	Y24	Z24	X25	Y25	Z25	X26	Y26	Z26	X27	Y27	Z27	X28	Y28	Z28	X29	Y29	Z29	X30	Y30	Z30	X31	Y31	Z31	X32	Y32	Z32	X33	Y33	Z33	X34	Y34	Z34	X35	Y35	Z35	X36	Y36	Z36	X37	Y37	Z37	X38	Y38	Z38	X39	Y39	Z39	X40	Y40	Z40	X41	Y41	Z41	X42	Y42	Z42	X43	Y43	Z43	X44	Y44	Z44	X45	Y45	Z45	X46	Y46	Z46	X47	Y47	Z47	X48	Y48	Z48	X49	Y49	Z49	X50	Y50	Z50	X51	Y51	Z51	X52	Y52	Z52	X53	Y53	Z53	
480	4.79	698.91333	98.232498	-208.27872	698.30652	102.6659	-245.37541	481.17484	1439.6478	-147.51152	469.96054	1412.0759	-137.94391	466.62881	1415.2057	-175.60342	507.49237	1061.442	-39.44347	491.87701	1060.6384	-287.14728	668.6499	1077.9342	-91.214325	661.5415	1082.9258	-209.02444	673.38013	1137.7202	-157.00427	678.61218	1112.8444	-169.69208	684.14587	1106.2449	-131.35548	394.8616	562.04803	-11.746454	329.67261	668.92328	-52.75914	353.29868	754.58099	-43.498238	416.57553	876.11499	-34.067745	453.29282	702.86603	12.642631	508.05109	842.30725	37.596764	491.48953	797.71765	43.25803	483.00748	768.94397	40.215797	453.00073	791.008	45.825844	371.29849	487.16415	-5.00389	309.34384	491.22513	-52.541336	278.59109	242.22455	-66.999611	301.88956	113.95617	-44.4818	295.15094	439.51071	-80.435829	286.32156	413.17542	-71.777016	296.5585	411.24152	-109.13919	359.39767	63.361675	-94.320572	151.52213	120.66664	-62.468521	220.06313	152.23166	-59.665127	194.29912	140.46106	-48.302197	187.84425	150.91093	-84.660835	683.2674	538.28717	-288.63425	577.79974	597.90356	-232.63428	531.52057	670.03418	-234.3154	487.11917	796.26868	-251.09845	631.60345	690.62012	-314.35226	589.86847	831.14294	-341.70575	613.05823	783.51404	-346.81464	608.92267	755.48541	-342.91895	645.48199	763.30457	-336.42688	711.28741	475.23129	-289.97501	660.93182	453.52808	-244.62193	782.15363	213.33116	-273.04617	733.72418	216.72972	-227.43488	808.35321	111.58384	-257.31287	684.64581	393.80121	-189.35675	696.27289	367.42465	-182.12621				889.36243	83.765152	-225.75085	669.58112	62.209164	-220.33789	721.39111	114.59308	-216.41405
481	4.8	697.76129	98.268127	-207.98463	697.06787	102.64072	-245.18906	466.40958	1436.9375	-146.66991	455.25598	1409.345	-137.11635	451.95605	1412.4839	-174.77843	492.60962	1058.7998	-38.417412	477.17239	1057.7419	-285.95285	653.82941	1075.4203	-90.023232	647.76428	1080.9808	-208.08208	658.27814	1135.1603	-155.7431	663.78601	1110.3505	-168.7547	669.55707	1104.4404	-129.89659	380.63269	558.66681	-10.903744	318.46344	663.92999	-52.495075	341.25369	749.10779	-43.081287	402.15204	871.55328	-33.155754	440.82123	698.95197	14.297625	494.17767	839.07074	38.769497	478.40622	794.51172	44.672043	470.07568	765.75714	41.966305	439.95615	787.39813	47.064079	352.93741	485.06961	-3.7496653	292.81207	490.87289	-53.044403	250.00021	244.09796	-65.633011	265.64658	114.64717	-41.505196	276.79733	440.17856	-80.71994	266.46399	414.30664	-72.089233	277.19894	411.73938	-109.10241	321.03766	60.552399	-89.760628	116.35547	130.11046	-61.896137	186.60172	157.60339	-58.11095	160.00742	147.38754	-47.063255	154.85669	157.78957	-83.676369	675.33508	538.25647	-287.33713	569.53564	596.01056	-230.74625	521.58984	667.66821	-232.65675	474.93848	793.17328	-249.80029	620.79694	689.36816	-313.63925	576.78607	829.32739	-340.88919	600.73981	782.07172	-346.07275	597.05426	754.10327	-341.89319	633.13422	762.46936	-335.94211	704.47858	475.69199	-289.25046	654.84406	453.2254	-243.7551	779.66785	214.74974	-272.33807	730.67426	217.44385	-226.87297	807.00854	113.33712	-256.74454	679.71979	393.63162	-188.49106	691.22046	367.50891	-181.39304				888.14282	86.416679	-225.1407	668.987	61.81572	-219.97935	719.8667	114.99107	-216.04692
482	4.81	696.27252	98.133057	-207.89702	695.65796	102.61372	-245.1154	451.60077	1434.1814	-145.7567	440.42322	1406.5645	-136.22044	437.22699	1409.6503	-173.8808	477.62283	1056.0911	-37.247086	462.01477	1054.9257	-284.76114	638.91473	1072.9357	-88.863632	632.3028	1078.1909	-206.50963	643.51801	1132.6744	-154.78098	648.87561	1107.8872	-167.4872	654.52539	1101.5635	-128.79301	366.40518	555.33533	-10.113276	307.08456	658.69751	-52.415493	328.98389	743.54718	-42.513401	387.64954	866.8999	-31.984873	428.23965	694.83362	15.86258	480.26703	835.70844	40.149632	465.1965	790.92651	46.355465	457.03232	762.03699	44.045517	426.85641	783.56842	49.083839	335.24982	483.15408	-2.9362838	276.46106	490.55591	-53.754089	223.19244	246.11639	-63.864941	231.84943	116.52397	-38.255783	258.74677	440.68408	-80.921608	247.19913	415.36975	-72.226265	258.62888	411.80319	-109.04587	285.1449	58.219845	-85.472397	84.120232	139.16328	-61.309769	155.57883	163.12355	-56.472771	128.53673	154.10057	-45.951519	124.07016	165.56331	-82.256439	667.25336	537.95752	-286.24506	560.18402	594.18372	-229.04042	510.51407	665.29016	-231.04474	462.14944	790.07758	-248.35019	609.40344	688.0813	-312.8851	563.56329	827.5976	-339.90701	587.89087	780.51379	-345.3696	584.52283	752.34741	-341.22452	621.14899	761.48187	-335.08801	697.29169	476.02292	-288.59903	648.16827	452.77991	-242.8765	776.64246	216.39783	-271.81152	727.61548	218.27551	-226.24474	805.45636	115.17365	-256.3833	673.78625	393.43796	-187.84702	685.70258	367.56021	-180.74156				886.78302	89.268494	-224.65839	668.25238	61.426453	-219.72462	718.15869	115.28174	-215.9919
483	4.82	694.74908	98.182083	-207.8869	693.89136	102.60501	-245.40028	436.72754	1431.3646	-144.7637	425.52722	1403.7722	-135.25667	422.39874	1406.8649	-172.92201	462.5098	1053.3447	-35.921299	447.02518	1051.9376	-283.61185	623.89166	1070.1013	-87.561935	617.68274	1075.5182	-205.53514	628.42896	1129.9941	-153.22928	633.93274	1105.045	-166.09399	639.66986	1099.1189	-127.23805	352.27975	551.90753	-9.6501837	295.14404	654.04382	-52.301178	316.36444	738.24445	-41.892651	372.99765	862.35394	-30.504854	415.0285	690.74945	17.045282	466.1044	832.35529	41.581062	451.48553	786.97723	48.643688	443.49149	758.10596	46.047012	413.26385	779.28448	51.397854	317.94186	481.46518	-2.1937637	260.06409	490.52896	-54.614048	198.15956	248.19553	-62.064976	201.10292	118.5806	-35.069901	240.98154	441.2511	-80.904236	228.59094	416.30872	-72.258232	240.56752	411.75726	-108.84353	252.52586	57.273567	-79.96096	54.951729	147.46059	-61.045105	127.33905	168.16742	-55.521328	99.637001	160.78604	-45.261089	96.426079	171.60298	-81.802071	657.87555	537.72455	-285.90051	549.86597	592.31274	-227.39876	499.75638	662.60504	-229.10103	448.82965	787.05988	-246.91614	597.49939	686.84491	-312.00134	549.24963	825.70795	-339.19803	574.52338	778.83264	-344.57953	571.90198	750.75073	-340.08072	607.57587	760.16699	-334.66382	689.91461	476.46097	-287.487	640.70135	452.1803	-242.06332	773.45813	218.18597	-271.55814	724.38733	218.97719	-226.52348	803.68933	117.14031	-256.36948	667.36786	393.20084	-187.19847	679.63971	367.51874	-180.16368				885.21155	92.310326	-224.48515	667.36157	61.10902	-219.82649	716.38629	115.62863	-215.9406
